<?xml version="1.0" encoding="iso-8859-1"?>
<!-- Uploaded to: SVG Repo, www.svgrepo.com, Generator: SVG Repo Mixer Tools -->
<svg height="800px" width="800px" version="1.1" id="Layer_1" xmlns="http://www.w3.org/2000/svg" xmlns:xlink="http://www.w3.org/1999/xlink" 
	 viewBox="0 0 512 512" xml:space="preserve">
<path style="fill:#A7A9AC;" d="M315.915,392.17h-119.83c-9.024,0-16.34-7.316-16.34-16.34v-59.915
	c0-21.363,9.042-41.877,24.807-56.281c6.574-6.009,16.754-5.643,22.882,0.824L256,290.601l28.565-30.144
	c6.097-6.433,16.211-6.834,22.797-0.901c0.808,0.728,1.644,1.524,2.555,2.433c14.407,14.41,22.338,33.559,22.338,53.926v59.915
	C332.255,384.854,324.939,392.17,315.915,392.17z"/>
<g>
	<path style="fill:#808285;" d="M309.916,261.99c-0.911-0.909-1.746-1.705-2.555-2.433c-6.586-5.933-16.7-5.532-22.797,0.901
		L256,290.601V392.17h59.915c9.024,0,16.34-7.316,16.34-16.34v-59.915C332.255,295.548,324.324,276.399,309.916,261.99z"/>
	<path style="fill:#808285;" d="M272.34,392.17v-77.345c0-9.024-7.316-16.34-16.34-16.34c-9.024,0-16.34,7.316-16.34,16.34v77.345
		H272.34z"/>
</g>
<path style="fill:#58595B;" d="M272.34,314.826c0-9.024-7.316-16.34-16.34-16.34v93.685h16.34V314.826z"/>
<path style="fill:#FF9900;" d="M244.139,325.597l-40.426-42.659c-6.286-6.632-5.903-17.133,0.829-23.295
	c14.081-12.886,32.357-19.983,51.458-19.983c19.102,0,37.377,7.097,51.457,19.984c6.741,6.169,7.106,16.67,0.829,23.294
	l-40.425,42.659C261.416,332.398,250.578,332.391,244.139,325.597z"/>
<path style="fill:#FF4F19;" d="M307.457,259.644c-14.08-12.887-32.355-19.984-51.457-19.984v91.036
	c4.319,0,8.639-1.698,11.861-5.098l40.425-42.659C314.564,276.313,314.198,265.813,307.457,259.644z"/>
<path style="fill:#FFDB2D;" d="M256,272.34c-42.048,0-76.255-34.208-76.255-76.255S213.952,119.83,256,119.83
	s76.255,34.208,76.255,76.255S298.048,272.34,256,272.34z"/>
<path style="fill:#FF9900;" d="M495.66,392.17H375.83c-9.024,0-16.34-7.316-16.34-16.34v-59.915
	c0-42.047,34.207-76.255,76.255-76.255S512,273.868,512,315.915v59.915C512,384.854,504.684,392.17,495.66,392.17z"/>
<path style="fill:#FFDB2D;" d="M435.745,272.34c-42.048,0-76.255-34.208-76.255-76.255s34.207-76.255,76.255-76.255
	S512,154.038,512,196.085S477.793,272.34,435.745,272.34z"/>
<path style="fill:#FF4F19;" d="M435.745,239.66V392.17h59.915c9.024,0,16.34-7.316,16.34-16.34v-59.915
	C512,273.868,477.793,239.66,435.745,239.66z"/>
<path style="fill:#FF9900;" d="M136.17,392.17H16.34C7.316,392.17,0,384.854,0,375.83v-59.915c0-42.047,34.207-76.255,76.255-76.255
	s76.255,34.208,76.255,76.255v59.915C152.511,384.854,145.194,392.17,136.17,392.17z"/>
<path style="fill:#FFDB2D;" d="M76.255,272.34C34.207,272.34,0,238.132,0,196.085s34.207-76.255,76.255-76.255
	s76.255,34.208,76.255,76.255S118.304,272.34,76.255,272.34z"/>
<path style="fill:#FF4F19;" d="M76.255,239.66V392.17h59.915c9.024,0,16.34-7.316,16.34-16.34v-59.915
	C152.511,273.868,118.304,239.66,76.255,239.66z"/>
<path style="fill:#58595B;" d="M495.66,392.17H16.34C7.316,392.17,0,384.854,0,375.83s7.316-16.34,16.34-16.34H495.66
	c9.024,0,16.34,7.316,16.34,16.34S504.684,392.17,495.66,392.17z"/>
<g>
	<path style="fill:#FF9900;" d="M256,119.83V272.34c42.048,0,76.255-34.208,76.255-76.255S298.048,119.83,256,119.83z"/>
	<path style="fill:#FF9900;" d="M76.255,119.83V272.34c42.048,0,76.255-34.208,76.255-76.255S118.304,119.83,76.255,119.83z"/>
	<path style="fill:#FF9900;" d="M435.745,119.83V272.34c42.048,0,76.255-34.208,76.255-76.255S477.793,119.83,435.745,119.83z"/>
</g>
<path style="fill:#414042;" d="M495.66,359.489H256v32.681h239.66c9.024,0,16.34-7.316,16.34-16.34S504.684,359.489,495.66,359.489z
	"/>
</svg>